<svg xmlns="http://www.w3.org/2000/svg" version="1.1" xmlns:xlink="http://www.w3.org/1999/xlink" xmlns:svgjs="http://svgjs.dev/svgjs" width="1920" height="1440" preserveAspectRatio="none" viewBox="0 0 1920 1440"><g mask="url(&quot;#SvgjsMask3987&quot;)" fill="none"><rect width="1920" height="1440" x="0" y="0" fill="url(&quot;#SvgjsLinearGradient3988&quot;)"></rect><path d="M0 -115L99.6 -57.5L99.6 57.5L0 115L-99.6 57.5L-99.6 -57.5zM99.6 57.5L199.19 115L199.19 230L99.6 287.5L0 230L0 115zM0 230L99.6 287.5L99.6 402.5L0 460L-99.6 402.5L-99.6 287.5zM99.6 402.5L199.19 460L199.19 575L99.6 632.5L0 575L0 460zM0 575L99.6 632.5L99.6 747.5L0 805L-99.6 747.5L-99.6 632.5zM99.6 747.5L199.19 805L199.19 920L99.6 977.5L0 920L0 805zM0 920L99.6 977.5L99.6 1092.5L0 1150L-99.6 1092.5L-99.6 977.5zM99.6 1092.5L199.19 1150L199.19 1265L99.6 1322.5L0 1265L0 1150zM0 1265L99.6 1322.5L99.6 1437.5L0 1495L-99.6 1437.5L-99.6 1322.5zM199.19 -115L298.79 -57.5L298.79 57.5L199.19 115L99.6 57.5L99.6 -57.5zM298.79 57.5L398.38 115L398.38 230L298.79 287.5L199.19 230L199.19 115zM199.19 230L298.79 287.5L298.79 402.5L199.19 460L99.6 402.5L99.6 287.5zM298.79 402.5L398.38 460L398.38 575L298.79 632.5L199.19 575L199.19 460zM199.19 575L298.79 632.5L298.79 747.5L199.19 805L99.6 747.5L99.6 632.5zM298.79 747.5L398.38 805L398.38 920L298.79 977.5L199.19 920L199.19 805zM199.19 920L298.79 977.5L298.79 1092.5L199.19 1150L99.6 1092.5L99.6 977.5zM298.79 1092.5L398.38 1150L398.38 1265L298.79 1322.5L199.19 1265L199.19 1150zM199.19 1265L298.79 1322.5L298.79 1437.5L199.19 1495L99.6 1437.5L99.6 1322.5zM398.38 -115L497.98 -57.5L497.98 57.5L398.38 115L298.79 57.5L298.79 -57.5zM497.98 57.5L597.57 115L597.57 230L497.98 287.5L398.38 230L398.38 115zM398.38 230L497.98 287.5L497.98 402.5L398.38 460L298.79 402.5L298.79 287.5zM497.98 402.5L597.57 460L597.57 575L497.98 632.5L398.38 575L398.38 460zM398.38 575L497.98 632.5L497.98 747.5L398.38 805L298.79 747.5L298.79 632.5zM497.98 747.5L597.57 805L597.57 920L497.98 977.5L398.38 920L398.38 805zM398.38 920L497.98 977.5L497.98 1092.5L398.38 1150L298.79 1092.5L298.79 977.5zM497.98 1092.5L597.57 1150L597.57 1265L497.98 1322.5L398.38 1265L398.38 1150zM398.38 1265L497.98 1322.5L497.98 1437.5L398.38 1495L298.79 1437.5L298.79 1322.5zM597.57 -115L697.17 -57.5L697.17 57.5L597.57 115L497.98 57.5L497.98 -57.5zM697.17 57.5L796.77 115L796.77 230L697.17 287.5L597.57 230L597.57 115zM597.57 230L697.17 287.5L697.17 402.5L597.57 460L497.98 402.5L497.98 287.5zM697.17 402.5L796.77 460L796.77 575L697.17 632.5L597.57 575L597.57 460zM597.57 575L697.17 632.5L697.17 747.5L597.57 805L497.98 747.5L497.98 632.5zM697.17 747.5L796.77 805L796.77 920L697.17 977.5L597.57 920L597.57 805zM597.57 920L697.17 977.5L697.17 1092.5L597.57 1150L497.98 1092.5L497.98 977.5zM697.17 1092.5L796.77 1150L796.77 1265L697.17 1322.5L597.57 1265L597.57 1150zM597.57 1265L697.17 1322.5L697.17 1437.5L597.57 1495L497.98 1437.5L497.98 1322.5zM796.77 -115L896.36 -57.5L896.36 57.5L796.77 115L697.17 57.5L697.17 -57.5zM896.36 57.5L995.96 115L995.96 230L896.36 287.5L796.77 230L796.77 115zM796.77 230L896.36 287.5L896.36 402.5L796.77 460L697.17 402.5L697.17 287.5zM896.36 402.5L995.96 460L995.96 575L896.36 632.5L796.77 575L796.77 460zM796.77 575L896.36 632.5L896.36 747.5L796.77 805L697.17 747.5L697.17 632.5zM896.36 747.5L995.96 805L995.96 920L896.36 977.5L796.77 920L796.77 805zM796.77 920L896.36 977.5L896.36 1092.5L796.77 1150L697.17 1092.5L697.17 977.5zM896.36 1092.5L995.96 1150L995.96 1265L896.36 1322.5L796.77 1265L796.77 1150zM796.77 1265L896.36 1322.5L896.36 1437.5L796.77 1495L697.17 1437.5L697.17 1322.5zM995.96 -115L1095.55 -57.5L1095.55 57.5L995.96 115L896.36 57.5L896.36 -57.5zM1095.55 57.5L1195.15 115L1195.15 230L1095.55 287.5L995.96 230L995.96 115zM995.96 230L1095.55 287.5L1095.55 402.5L995.96 460L896.36 402.5L896.36 287.5zM1095.55 402.5L1195.15 460L1195.15 575L1095.55 632.5L995.96 575L995.96 460zM995.96 575L1095.55 632.5L1095.55 747.5L995.96 805L896.36 747.5L896.36 632.5zM1095.55 747.5L1195.15 805L1195.15 920L1095.55 977.5L995.96 920L995.96 805zM995.96 920L1095.55 977.5L1095.55 1092.5L995.96 1150L896.36 1092.5L896.36 977.5zM1095.55 1092.5L1195.15 1150L1195.15 1265L1095.55 1322.5L995.96 1265L995.96 1150zM995.96 1265L1095.55 1322.5L1095.55 1437.5L995.96 1495L896.36 1437.5L896.36 1322.5zM1195.15 -115L1294.74 -57.5L1294.74 57.5L1195.15 115L1095.55 57.5L1095.55 -57.5zM1294.74 57.5L1394.34 115L1394.34 230L1294.74 287.5L1195.15 230L1195.15 115zM1195.15 230L1294.74 287.5L1294.74 402.5L1195.15 460L1095.55 402.5L1095.55 287.5zM1294.74 402.5L1394.34 460L1394.34 575L1294.74 632.5L1195.15 575L1195.15 460zM1195.15 575L1294.74 632.5L1294.74 747.5L1195.15 805L1095.55 747.5L1095.55 632.5zM1294.74 747.5L1394.34 805L1394.34 920L1294.74 977.5L1195.15 920L1195.15 805zM1195.15 920L1294.74 977.5L1294.74 1092.5L1195.15 1150L1095.55 1092.5L1095.55 977.5zM1294.74 1092.5L1394.34 1150L1394.34 1265L1294.74 1322.5L1195.15 1265L1195.15 1150zM1195.15 1265L1294.74 1322.5L1294.74 1437.5L1195.15 1495L1095.55 1437.5L1095.55 1322.5zM1394.34 -115L1493.94 -57.5L1493.94 57.5L1394.34 115L1294.74 57.5L1294.74 -57.5zM1493.94 57.5L1593.53 115L1593.53 230L1493.94 287.5L1394.34 230L1394.34 115zM1394.34 230L1493.94 287.5L1493.94 402.5L1394.34 460L1294.74 402.5L1294.74 287.5zM1493.94 402.5L1593.53 460L1593.53 575L1493.94 632.5L1394.34 575L1394.34 460zM1394.34 575L1493.94 632.5L1493.94 747.5L1394.34 805L1294.74 747.5L1294.74 632.5zM1493.94 747.5L1593.53 805L1593.53 920L1493.94 977.5L1394.34 920L1394.34 805zM1394.34 920L1493.94 977.5L1493.94 1092.5L1394.34 1150L1294.74 1092.5L1294.74 977.5zM1493.94 1092.5L1593.53 1150L1593.53 1265L1493.94 1322.5L1394.34 1265L1394.34 1150zM1394.34 1265L1493.94 1322.5L1493.94 1437.5L1394.34 1495L1294.74 1437.5L1294.74 1322.5zM1593.53 -115L1693.13 -57.5L1693.13 57.5L1593.53 115L1493.94 57.5L1493.94 -57.5zM1693.13 57.5L1792.72 115L1792.72 230L1693.13 287.5L1593.53 230L1593.53 115zM1593.53 230L1693.13 287.5L1693.13 402.5L1593.53 460L1493.94 402.5L1493.94 287.5zM1693.13 402.5L1792.72 460L1792.72 575L1693.13 632.5L1593.53 575L1593.53 460zM1593.53 575L1693.13 632.5L1693.13 747.5L1593.53 805L1493.94 747.5L1493.94 632.5zM1693.13 747.5L1792.72 805L1792.72 920L1693.13 977.5L1593.53 920L1593.53 805zM1593.53 920L1693.13 977.5L1693.13 1092.5L1593.53 1150L1493.94 1092.5L1493.94 977.5zM1693.13 1092.5L1792.72 1150L1792.72 1265L1693.13 1322.5L1593.53 1265L1593.53 1150zM1593.53 1265L1693.13 1322.5L1693.13 1437.5L1593.53 1495L1493.94 1437.5L1493.94 1322.5zM1792.72 -115L1892.32 -57.5L1892.32 57.5L1792.72 115L1693.13 57.5L1693.13 -57.5zM1892.32 57.5L1991.91 115L1991.91 230L1892.32 287.5L1792.72 230L1792.72 115zM1792.72 230L1892.32 287.5L1892.32 402.5L1792.72 460L1693.13 402.5L1693.13 287.5zM1892.32 402.5L1991.91 460L1991.91 575L1892.32 632.5L1792.72 575L1792.72 460zM1792.72 575L1892.32 632.5L1892.32 747.5L1792.72 805L1693.13 747.5L1693.13 632.5zM1892.32 747.5L1991.91 805L1991.91 920L1892.32 977.5L1792.72 920L1792.72 805zM1792.72 920L1892.32 977.5L1892.32 1092.5L1792.72 1150L1693.13 1092.5L1693.13 977.5zM1892.32 1092.5L1991.91 1150L1991.91 1265L1892.32 1322.5L1792.72 1265L1792.72 1150zM1792.72 1265L1892.32 1322.5L1892.32 1437.5L1792.72 1495L1693.13 1437.5L1693.13 1322.5z" stroke="url(&quot;#SvgjsLinearGradient3989&quot;)" stroke-width="2"></path><path d="M0 -105L90.94 -52.5L90.94 52.5L0 105L-90.94 52.5L-90.94 -52.5zM90.94 52.5L181.87 105L181.87 210L90.94 262.5L0 210L0 105zM0 210L90.94 262.5L90.94 367.5L0 420L-90.94 367.5L-90.94 262.5zM90.94 367.5L181.87 420L181.87 525L90.94 577.5L0 525L0 420zM0 525L90.94 577.5L90.94 682.5L0 735L-90.94 682.5L-90.94 577.5zM90.94 682.5L181.87 735L181.87 840L90.94 892.5L0 840L0 735zM0 840L90.94 892.5L90.94 997.5L0 1050L-90.94 997.5L-90.94 892.5zM90.94 997.5L181.87 1050L181.87 1155L90.94 1207.5L0 1155L0 1050zM0 1155L90.94 1207.5L90.94 1312.5L0 1365L-90.94 1312.5L-90.94 1207.5zM90.94 1312.5L181.87 1365L181.87 1470L90.94 1522.5L0 1470L0 1365zM181.87 -105L272.81 -52.5L272.81 52.5L181.87 105L90.94 52.5L90.94 -52.5zM272.81 52.5L363.74 105L363.74 210L272.81 262.5L181.87 210L181.87 105zM181.87 210L272.81 262.5L272.81 367.5L181.87 420L90.94 367.5L90.94 262.5zM272.81 367.5L363.74 420L363.74 525L272.81 577.5L181.87 525L181.87 420zM181.87 525L272.81 577.5L272.81 682.5L181.87 735L90.94 682.5L90.94 577.5zM272.81 682.5L363.74 735L363.74 840L272.81 892.5L181.87 840L181.87 735zM181.87 840L272.81 892.5L272.81 997.5L181.87 1050L90.94 997.5L90.94 892.5zM272.81 997.5L363.74 1050L363.74 1155L272.81 1207.5L181.87 1155L181.87 1050zM181.87 1155L272.81 1207.5L272.81 1312.5L181.87 1365L90.94 1312.5L90.94 1207.5zM272.81 1312.5L363.74 1365L363.74 1470L272.81 1522.5L181.87 1470L181.87 1365zM363.74 -105L454.68 -52.5L454.68 52.5L363.74 105L272.81 52.5L272.81 -52.5zM454.68 52.5L545.61 105L545.61 210L454.68 262.5L363.74 210L363.74 105zM363.74 210L454.68 262.5L454.68 367.5L363.74 420L272.81 367.5L272.81 262.5zM454.68 367.5L545.61 420L545.61 525L454.68 577.5L363.74 525L363.74 420zM363.74 525L454.68 577.5L454.68 682.5L363.74 735L272.81 682.5L272.81 577.5zM454.68 682.5L545.61 735L545.61 840L454.68 892.5L363.74 840L363.74 735zM363.74 840L454.68 892.5L454.68 997.5L363.74 1050L272.81 997.5L272.81 892.5zM454.68 997.5L545.61 1050L545.61 1155L454.68 1207.5L363.74 1155L363.74 1050zM363.74 1155L454.68 1207.5L454.68 1312.5L363.74 1365L272.81 1312.5L272.81 1207.5zM454.68 1312.5L545.61 1365L545.61 1470L454.68 1522.5L363.74 1470L363.74 1365zM545.61 -105L636.55 -52.5L636.55 52.5L545.61 105L454.68 52.5L454.68 -52.5zM636.55 52.5L727.48 105L727.48 210L636.55 262.5L545.61 210L545.61 105zM545.61 210L636.55 262.5L636.55 367.5L545.61 420L454.68 367.5L454.68 262.5zM636.55 367.5L727.48 420L727.48 525L636.55 577.5L545.61 525L545.61 420zM545.61 525L636.55 577.5L636.55 682.5L545.61 735L454.68 682.5L454.68 577.5zM636.55 682.5L727.48 735L727.48 840L636.55 892.5L545.61 840L545.61 735zM545.61 840L636.55 892.5L636.55 997.5L545.61 1050L454.68 997.5L454.68 892.5zM636.55 997.5L727.48 1050L727.48 1155L636.55 1207.5L545.61 1155L545.61 1050zM545.61 1155L636.55 1207.5L636.55 1312.5L545.61 1365L454.68 1312.5L454.68 1207.5zM636.55 1312.5L727.48 1365L727.48 1470L636.55 1522.5L545.61 1470L545.61 1365zM727.48 -105L818.42 -52.5L818.42 52.5L727.48 105L636.55 52.5L636.55 -52.5zM818.42 52.5L909.35 105L909.35 210L818.42 262.5L727.48 210L727.48 105zM727.48 210L818.42 262.5L818.42 367.5L727.48 420L636.55 367.5L636.55 262.5zM818.42 367.5L909.35 420L909.35 525L818.42 577.5L727.48 525L727.48 420zM727.48 525L818.42 577.5L818.42 682.5L727.48 735L636.55 682.5L636.55 577.5zM818.42 682.5L909.35 735L909.35 840L818.42 892.5L727.48 840L727.48 735zM727.48 840L818.42 892.5L818.42 997.5L727.48 1050L636.55 997.5L636.55 892.5zM818.42 997.5L909.35 1050L909.35 1155L818.42 1207.5L727.48 1155L727.48 1050zM727.48 1155L818.42 1207.5L818.42 1312.5L727.48 1365L636.55 1312.5L636.55 1207.5zM818.42 1312.5L909.35 1365L909.35 1470L818.42 1522.5L727.48 1470L727.48 1365zM909.35 -105L1000.29 -52.5L1000.29 52.5L909.35 105L818.42 52.5L818.42 -52.5zM1000.29 52.5L1091.22 105L1091.22 210L1000.29 262.5L909.35 210L909.35 105zM909.35 210L1000.29 262.5L1000.29 367.5L909.35 420L818.42 367.5L818.42 262.5zM1000.29 367.5L1091.22 420L1091.22 525L1000.29 577.5L909.35 525L909.35 420zM909.35 525L1000.29 577.5L1000.29 682.5L909.35 735L818.42 682.5L818.42 577.5zM1000.29 682.5L1091.22 735L1091.22 840L1000.29 892.5L909.35 840L909.35 735zM909.35 840L1000.29 892.5L1000.29 997.5L909.35 1050L818.42 997.5L818.42 892.5zM1000.29 997.5L1091.22 1050L1091.22 1155L1000.29 1207.5L909.35 1155L909.35 1050zM909.35 1155L1000.29 1207.5L1000.29 1312.5L909.35 1365L818.42 1312.5L818.42 1207.5zM1000.29 1312.5L1091.22 1365L1091.22 1470L1000.29 1522.5L909.35 1470L909.35 1365zM1091.22 -105L1182.16 -52.5L1182.16 52.5L1091.22 105L1000.29 52.5L1000.29 -52.5zM1182.16 52.5L1273.09 105L1273.09 210L1182.16 262.5L1091.22 210L1091.22 105zM1091.22 210L1182.16 262.5L1182.16 367.5L1091.22 420L1000.29 367.5L1000.29 262.5zM1182.16 367.5L1273.09 420L1273.09 525L1182.16 577.5L1091.22 525L1091.22 420zM1091.22 525L1182.16 577.5L1182.16 682.5L1091.22 735L1000.29 682.5L1000.29 577.5zM1182.16 682.5L1273.09 735L1273.09 840L1182.16 892.5L1091.22 840L1091.22 735zM1091.22 840L1182.16 892.5L1182.16 997.5L1091.22 1050L1000.29 997.5L1000.29 892.5zM1182.16 997.5L1273.09 1050L1273.09 1155L1182.16 1207.5L1091.22 1155L1091.22 1050zM1091.22 1155L1182.16 1207.5L1182.16 1312.5L1091.22 1365L1000.29 1312.5L1000.29 1207.5zM1182.16 1312.5L1273.09 1365L1273.09 1470L1182.16 1522.5L1091.22 1470L1091.22 1365zM1273.09 -105L1364.03 -52.5L1364.03 52.5L1273.09 105L1182.16 52.5L1182.16 -52.5zM1364.03 52.5L1454.96 105L1454.96 210L1364.03 262.5L1273.09 210L1273.09 105zM1273.09 210L1364.03 262.5L1364.03 367.5L1273.09 420L1182.16 367.5L1182.16 262.5zM1364.03 367.5L1454.96 420L1454.96 525L1364.03 577.5L1273.09 525L1273.09 420zM1273.09 525L1364.03 577.5L1364.03 682.5L1273.09 735L1182.16 682.5L1182.16 577.5zM1364.03 682.5L1454.96 735L1454.96 840L1364.03 892.5L1273.09 840L1273.09 735zM1273.09 840L1364.03 892.5L1364.03 997.5L1273.09 1050L1182.16 997.5L1182.16 892.5zM1364.03 997.5L1454.96 1050L1454.96 1155L1364.03 1207.5L1273.09 1155L1273.09 1050zM1273.09 1155L1364.03 1207.5L1364.03 1312.5L1273.09 1365L1182.16 1312.5L1182.16 1207.5zM1364.03 1312.5L1454.96 1365L1454.96 1470L1364.03 1522.5L1273.09 1470L1273.09 1365zM1454.96 -105L1545.9 -52.5L1545.9 52.5L1454.96 105L1364.03 52.5L1364.03 -52.5zM1545.9 52.5L1636.83 105L1636.83 210L1545.9 262.5L1454.96 210L1454.96 105zM1454.96 210L1545.9 262.5L1545.9 367.5L1454.96 420L1364.03 367.5L1364.03 262.5zM1545.9 367.5L1636.83 420L1636.83 525L1545.9 577.5L1454.96 525L1454.96 420zM1454.96 525L1545.9 577.5L1545.9 682.5L1454.96 735L1364.03 682.5L1364.03 577.5zM1545.9 682.5L1636.83 735L1636.83 840L1545.9 892.5L1454.96 840L1454.96 735zM1454.96 840L1545.9 892.5L1545.9 997.5L1454.96 1050L1364.03 997.5L1364.03 892.5zM1545.9 997.5L1636.83 1050L1636.83 1155L1545.9 1207.5L1454.96 1155L1454.96 1050zM1454.96 1155L1545.9 1207.5L1545.9 1312.5L1454.96 1365L1364.03 1312.5L1364.03 1207.5zM1545.9 1312.5L1636.83 1365L1636.83 1470L1545.9 1522.5L1454.96 1470L1454.96 1365zM1636.83 -105L1727.77 -52.5L1727.77 52.5L1636.83 105L1545.9 52.5L1545.9 -52.5zM1727.77 52.5L1818.7 105L1818.7 210L1727.77 262.5L1636.83 210L1636.83 105zM1636.83 210L1727.77 262.5L1727.77 367.5L1636.83 420L1545.9 367.5L1545.9 262.5zM1727.77 367.5L1818.7 420L1818.7 525L1727.77 577.5L1636.83 525L1636.83 420zM1636.83 525L1727.77 577.5L1727.77 682.5L1636.83 735L1545.9 682.5L1545.9 577.5zM1727.77 682.5L1818.7 735L1818.7 840L1727.77 892.5L1636.83 840L1636.83 735zM1636.83 840L1727.77 892.5L1727.77 997.5L1636.83 1050L1545.9 997.5L1545.9 892.5zM1727.77 997.5L1818.7 1050L1818.7 1155L1727.77 1207.5L1636.83 1155L1636.83 1050zM1636.83 1155L1727.77 1207.5L1727.77 1312.5L1636.83 1365L1545.9 1312.5L1545.9 1207.5zM1727.77 1312.5L1818.7 1365L1818.7 1470L1727.77 1522.5L1636.83 1470L1636.83 1365zM1818.7 -105L1909.64 -52.5L1909.64 52.5L1818.7 105L1727.77 52.5L1727.77 -52.5zM1909.64 52.5L2000.58 105L2000.58 210L1909.64 262.5L1818.7 210L1818.7 105zM1818.7 210L1909.64 262.5L1909.64 367.5L1818.7 420L1727.77 367.5L1727.77 262.5zM1909.64 367.5L2000.58 420L2000.58 525L1909.64 577.5L1818.7 525L1818.7 420zM1818.7 525L1909.64 577.5L1909.64 682.5L1818.7 735L1727.77 682.5L1727.77 577.5zM1909.64 682.5L2000.58 735L2000.58 840L1909.64 892.5L1818.7 840L1818.7 735zM1818.7 840L1909.64 892.5L1909.64 997.5L1818.7 1050L1727.77 997.5L1727.77 892.5zM1909.64 997.5L2000.58 1050L2000.58 1155L1909.64 1207.5L1818.7 1155L1818.7 1050zM1818.7 1155L1909.64 1207.5L1909.64 1312.5L1818.7 1365L1727.77 1312.5L1727.77 1207.5zM1909.64 1312.5L2000.58 1365L2000.58 1470L1909.64 1522.5L1818.7 1470L1818.7 1365z" stroke="url(&quot;#SvgjsLinearGradient3990&quot;)" stroke-width="2"></path><path d="M-10.5 -105 a10.5 10.5 0 1 0 21 0 a10.5 10.5 0 1 0 -21 0zM80.44 -52.5 a10.5 10.5 0 1 0 21 0 a10.5 10.5 0 1 0 -21 0zM80.44 52.5 a10.5 10.5 0 1 0 21 0 a10.5 10.5 0 1 0 -21 0zM-10.5 105 a10.5 10.5 0 1 0 21 0 a10.5 10.5 0 1 0 -21 0zM-101.44 52.5 a10.5 10.5 0 1 0 21 0 a10.5 10.5 0 1 0 -21 0zM-101.44 -52.5 a10.5 10.5 0 1 0 21 0 a10.5 10.5 0 1 0 -21 0zM171.37 105 a10.5 10.5 0 1 0 21 0 a10.5 10.5 0 1 0 -21 0zM171.37 210 a10.5 10.5 0 1 0 21 0 a10.5 10.5 0 1 0 -21 0zM80.44 262.5 a10.5 10.5 0 1 0 21 0 a10.5 10.5 0 1 0 -21 0zM-10.5 210 a10.5 10.5 0 1 0 21 0 a10.5 10.5 0 1 0 -21 0zM80.44 367.5 a10.5 10.5 0 1 0 21 0 a10.5 10.5 0 1 0 -21 0zM-10.5 420 a10.5 10.5 0 1 0 21 0 a10.5 10.5 0 1 0 -21 0zM-101.44 367.5 a10.5 10.5 0 1 0 21 0 a10.5 10.5 0 1 0 -21 0zM-101.44 262.5 a10.5 10.5 0 1 0 21 0 a10.5 10.5 0 1 0 -21 0zM171.37 420 a10.5 10.5 0 1 0 21 0 a10.5 10.5 0 1 0 -21 0zM171.37 525 a10.5 10.5 0 1 0 21 0 a10.5 10.5 0 1 0 -21 0zM80.44 577.5 a10.5 10.5 0 1 0 21 0 a10.5 10.5 0 1 0 -21 0zM-10.5 525 a10.5 10.5 0 1 0 21 0 a10.5 10.5 0 1 0 -21 0zM80.44 682.5 a10.5 10.5 0 1 0 21 0 a10.5 10.5 0 1 0 -21 0zM-10.5 735 a10.5 10.5 0 1 0 21 0 a10.5 10.5 0 1 0 -21 0zM-101.44 682.5 a10.5 10.5 0 1 0 21 0 a10.5 10.5 0 1 0 -21 0zM-101.44 577.5 a10.5 10.5 0 1 0 21 0 a10.5 10.5 0 1 0 -21 0zM171.37 735 a10.5 10.5 0 1 0 21 0 a10.5 10.5 0 1 0 -21 0zM171.37 840 a10.5 10.5 0 1 0 21 0 a10.5 10.5 0 1 0 -21 0zM80.44 892.5 a10.5 10.5 0 1 0 21 0 a10.5 10.5 0 1 0 -21 0zM-10.5 840 a10.5 10.5 0 1 0 21 0 a10.5 10.5 0 1 0 -21 0zM80.44 997.5 a10.5 10.5 0 1 0 21 0 a10.5 10.5 0 1 0 -21 0zM-10.5 1050 a10.5 10.5 0 1 0 21 0 a10.5 10.5 0 1 0 -21 0zM-101.44 997.5 a10.5 10.5 0 1 0 21 0 a10.5 10.5 0 1 0 -21 0zM-101.44 892.5 a10.5 10.5 0 1 0 21 0 a10.5 10.5 0 1 0 -21 0zM171.37 1050 a10.5 10.5 0 1 0 21 0 a10.5 10.5 0 1 0 -21 0zM171.37 1155 a10.5 10.5 0 1 0 21 0 a10.5 10.5 0 1 0 -21 0zM80.44 1207.5 a10.5 10.5 0 1 0 21 0 a10.5 10.5 0 1 0 -21 0zM-10.5 1155 a10.5 10.5 0 1 0 21 0 a10.5 10.5 0 1 0 -21 0zM80.44 1312.5 a10.5 10.5 0 1 0 21 0 a10.5 10.5 0 1 0 -21 0zM-10.5 1365 a10.5 10.5 0 1 0 21 0 a10.5 10.5 0 1 0 -21 0zM-101.44 1312.5 a10.5 10.5 0 1 0 21 0 a10.5 10.5 0 1 0 -21 0zM-101.44 1207.5 a10.5 10.5 0 1 0 21 0 a10.5 10.5 0 1 0 -21 0zM171.37 1365 a10.5 10.5 0 1 0 21 0 a10.5 10.5 0 1 0 -21 0zM171.37 1470 a10.5 10.5 0 1 0 21 0 a10.5 10.5 0 1 0 -21 0zM80.44 1522.5 a10.5 10.5 0 1 0 21 0 a10.5 10.5 0 1 0 -21 0zM-10.5 1470 a10.5 10.5 0 1 0 21 0 a10.5 10.5 0 1 0 -21 0zM171.37 -105 a10.5 10.5 0 1 0 21 0 a10.5 10.5 0 1 0 -21 0zM262.31 -52.5 a10.5 10.5 0 1 0 21 0 a10.5 10.5 0 1 0 -21 0zM262.31 52.5 a10.5 10.5 0 1 0 21 0 a10.5 10.5 0 1 0 -21 0zM353.24 105 a10.5 10.5 0 1 0 21 0 a10.5 10.5 0 1 0 -21 0zM353.24 210 a10.5 10.5 0 1 0 21 0 a10.5 10.5 0 1 0 -21 0zM262.31 262.5 a10.5 10.5 0 1 0 21 0 a10.5 10.5 0 1 0 -21 0zM262.31 367.5 a10.5 10.5 0 1 0 21 0 a10.5 10.5 0 1 0 -21 0zM353.24 420 a10.5 10.5 0 1 0 21 0 a10.5 10.5 0 1 0 -21 0zM353.24 525 a10.5 10.5 0 1 0 21 0 a10.5 10.5 0 1 0 -21 0zM262.31 577.5 a10.5 10.5 0 1 0 21 0 a10.5 10.5 0 1 0 -21 0zM262.31 682.5 a10.5 10.5 0 1 0 21 0 a10.5 10.5 0 1 0 -21 0zM353.24 735 a10.5 10.5 0 1 0 21 0 a10.5 10.5 0 1 0 -21 0zM353.24 840 a10.5 10.5 0 1 0 21 0 a10.5 10.5 0 1 0 -21 0zM262.31 892.5 a10.5 10.5 0 1 0 21 0 a10.5 10.5 0 1 0 -21 0zM262.31 997.5 a10.5 10.5 0 1 0 21 0 a10.5 10.5 0 1 0 -21 0zM353.24 1050 a10.5 10.5 0 1 0 21 0 a10.5 10.5 0 1 0 -21 0zM353.24 1155 a10.5 10.5 0 1 0 21 0 a10.5 10.5 0 1 0 -21 0zM262.31 1207.5 a10.5 10.5 0 1 0 21 0 a10.5 10.5 0 1 0 -21 0zM262.31 1312.5 a10.5 10.5 0 1 0 21 0 a10.5 10.5 0 1 0 -21 0zM353.24 1365 a10.5 10.5 0 1 0 21 0 a10.5 10.5 0 1 0 -21 0zM353.24 1470 a10.5 10.5 0 1 0 21 0 a10.5 10.5 0 1 0 -21 0zM262.31 1522.5 a10.5 10.5 0 1 0 21 0 a10.5 10.5 0 1 0 -21 0zM353.24 -105 a10.5 10.5 0 1 0 21 0 a10.5 10.5 0 1 0 -21 0zM444.18 -52.5 a10.5 10.5 0 1 0 21 0 a10.5 10.5 0 1 0 -21 0zM444.18 52.5 a10.5 10.5 0 1 0 21 0 a10.5 10.5 0 1 0 -21 0zM535.11 105 a10.5 10.5 0 1 0 21 0 a10.5 10.5 0 1 0 -21 0zM535.11 210 a10.5 10.5 0 1 0 21 0 a10.5 10.5 0 1 0 -21 0zM444.18 262.5 a10.5 10.5 0 1 0 21 0 a10.5 10.5 0 1 0 -21 0zM444.18 367.5 a10.5 10.5 0 1 0 21 0 a10.5 10.5 0 1 0 -21 0zM535.11 420 a10.5 10.5 0 1 0 21 0 a10.5 10.5 0 1 0 -21 0zM535.11 525 a10.5 10.5 0 1 0 21 0 a10.5 10.5 0 1 0 -21 0zM444.18 577.5 a10.5 10.5 0 1 0 21 0 a10.5 10.5 0 1 0 -21 0zM444.18 682.5 a10.5 10.5 0 1 0 21 0 a10.5 10.5 0 1 0 -21 0zM535.11 735 a10.5 10.5 0 1 0 21 0 a10.5 10.5 0 1 0 -21 0zM535.11 840 a10.5 10.5 0 1 0 21 0 a10.5 10.5 0 1 0 -21 0zM444.18 892.5 a10.5 10.5 0 1 0 21 0 a10.5 10.5 0 1 0 -21 0zM444.18 997.5 a10.5 10.5 0 1 0 21 0 a10.5 10.5 0 1 0 -21 0zM535.11 1050 a10.5 10.5 0 1 0 21 0 a10.5 10.5 0 1 0 -21 0zM535.11 1155 a10.5 10.5 0 1 0 21 0 a10.5 10.5 0 1 0 -21 0zM444.18 1207.5 a10.5 10.5 0 1 0 21 0 a10.5 10.5 0 1 0 -21 0zM444.18 1312.5 a10.5 10.5 0 1 0 21 0 a10.5 10.5 0 1 0 -21 0zM535.11 1365 a10.5 10.5 0 1 0 21 0 a10.5 10.5 0 1 0 -21 0zM535.11 1470 a10.5 10.5 0 1 0 21 0 a10.5 10.5 0 1 0 -21 0zM444.18 1522.5 a10.5 10.5 0 1 0 21 0 a10.5 10.5 0 1 0 -21 0zM535.11 -105 a10.5 10.5 0 1 0 21 0 a10.5 10.5 0 1 0 -21 0zM626.05 -52.5 a10.5 10.5 0 1 0 21 0 a10.5 10.5 0 1 0 -21 0zM626.05 52.5 a10.5 10.5 0 1 0 21 0 a10.5 10.5 0 1 0 -21 0zM716.98 105 a10.5 10.5 0 1 0 21 0 a10.5 10.5 0 1 0 -21 0zM716.98 210 a10.5 10.5 0 1 0 21 0 a10.5 10.5 0 1 0 -21 0zM626.05 262.5 a10.5 10.5 0 1 0 21 0 a10.5 10.5 0 1 0 -21 0zM626.05 367.5 a10.5 10.5 0 1 0 21 0 a10.5 10.5 0 1 0 -21 0zM716.98 420 a10.5 10.5 0 1 0 21 0 a10.5 10.5 0 1 0 -21 0zM716.98 525 a10.5 10.5 0 1 0 21 0 a10.5 10.5 0 1 0 -21 0zM626.05 577.5 a10.5 10.5 0 1 0 21 0 a10.5 10.5 0 1 0 -21 0zM626.05 682.5 a10.5 10.5 0 1 0 21 0 a10.5 10.5 0 1 0 -21 0zM716.98 735 a10.5 10.5 0 1 0 21 0 a10.5 10.5 0 1 0 -21 0zM716.98 840 a10.5 10.5 0 1 0 21 0 a10.5 10.5 0 1 0 -21 0zM626.05 892.5 a10.5 10.5 0 1 0 21 0 a10.5 10.5 0 1 0 -21 0zM626.05 997.5 a10.5 10.5 0 1 0 21 0 a10.5 10.5 0 1 0 -21 0zM716.98 1050 a10.5 10.5 0 1 0 21 0 a10.5 10.5 0 1 0 -21 0zM716.98 1155 a10.5 10.5 0 1 0 21 0 a10.5 10.5 0 1 0 -21 0zM626.05 1207.5 a10.5 10.5 0 1 0 21 0 a10.5 10.5 0 1 0 -21 0zM626.05 1312.5 a10.5 10.5 0 1 0 21 0 a10.5 10.5 0 1 0 -21 0zM716.98 1365 a10.5 10.5 0 1 0 21 0 a10.5 10.5 0 1 0 -21 0zM716.98 1470 a10.5 10.5 0 1 0 21 0 a10.5 10.5 0 1 0 -21 0zM626.05 1522.5 a10.5 10.5 0 1 0 21 0 a10.5 10.5 0 1 0 -21 0zM716.98 -105 a10.5 10.5 0 1 0 21 0 a10.5 10.5 0 1 0 -21 0zM807.92 -52.5 a10.5 10.5 0 1 0 21 0 a10.5 10.5 0 1 0 -21 0zM807.92 52.5 a10.5 10.5 0 1 0 21 0 a10.5 10.5 0 1 0 -21 0zM898.85 105 a10.5 10.5 0 1 0 21 0 a10.5 10.5 0 1 0 -21 0zM898.85 210 a10.5 10.5 0 1 0 21 0 a10.5 10.5 0 1 0 -21 0zM807.92 262.5 a10.5 10.5 0 1 0 21 0 a10.5 10.5 0 1 0 -21 0zM807.92 367.5 a10.5 10.5 0 1 0 21 0 a10.5 10.5 0 1 0 -21 0zM898.85 420 a10.5 10.5 0 1 0 21 0 a10.5 10.5 0 1 0 -21 0zM898.85 525 a10.5 10.5 0 1 0 21 0 a10.5 10.5 0 1 0 -21 0zM807.92 577.5 a10.5 10.5 0 1 0 21 0 a10.5 10.5 0 1 0 -21 0zM807.92 682.5 a10.5 10.5 0 1 0 21 0 a10.5 10.5 0 1 0 -21 0zM898.85 735 a10.5 10.5 0 1 0 21 0 a10.5 10.5 0 1 0 -21 0zM898.85 840 a10.5 10.5 0 1 0 21 0 a10.5 10.5 0 1 0 -21 0zM807.92 892.5 a10.5 10.5 0 1 0 21 0 a10.5 10.5 0 1 0 -21 0zM807.92 997.5 a10.5 10.5 0 1 0 21 0 a10.5 10.5 0 1 0 -21 0zM898.85 1050 a10.5 10.5 0 1 0 21 0 a10.5 10.5 0 1 0 -21 0zM898.85 1155 a10.5 10.5 0 1 0 21 0 a10.5 10.5 0 1 0 -21 0zM807.92 1207.5 a10.5 10.5 0 1 0 21 0 a10.5 10.5 0 1 0 -21 0zM807.92 1312.5 a10.5 10.5 0 1 0 21 0 a10.5 10.5 0 1 0 -21 0zM898.85 1365 a10.5 10.5 0 1 0 21 0 a10.5 10.5 0 1 0 -21 0zM898.85 1470 a10.5 10.5 0 1 0 21 0 a10.5 10.5 0 1 0 -21 0zM807.92 1522.5 a10.5 10.5 0 1 0 21 0 a10.5 10.5 0 1 0 -21 0zM898.85 -105 a10.5 10.5 0 1 0 21 0 a10.5 10.5 0 1 0 -21 0zM989.79 -52.5 a10.5 10.5 0 1 0 21 0 a10.5 10.5 0 1 0 -21 0zM989.79 52.5 a10.5 10.5 0 1 0 21 0 a10.5 10.5 0 1 0 -21 0zM1080.72 105 a10.5 10.5 0 1 0 21 0 a10.5 10.5 0 1 0 -21 0zM1080.72 210 a10.5 10.5 0 1 0 21 0 a10.5 10.5 0 1 0 -21 0zM989.79 262.5 a10.5 10.5 0 1 0 21 0 a10.5 10.5 0 1 0 -21 0zM989.79 367.5 a10.5 10.5 0 1 0 21 0 a10.5 10.5 0 1 0 -21 0zM1080.72 420 a10.5 10.5 0 1 0 21 0 a10.5 10.5 0 1 0 -21 0zM1080.72 525 a10.5 10.5 0 1 0 21 0 a10.5 10.5 0 1 0 -21 0zM989.79 577.5 a10.5 10.5 0 1 0 21 0 a10.5 10.5 0 1 0 -21 0zM989.79 682.5 a10.5 10.5 0 1 0 21 0 a10.5 10.5 0 1 0 -21 0zM1080.72 735 a10.5 10.5 0 1 0 21 0 a10.5 10.5 0 1 0 -21 0zM1080.72 840 a10.5 10.5 0 1 0 21 0 a10.5 10.5 0 1 0 -21 0zM989.79 892.5 a10.5 10.5 0 1 0 21 0 a10.5 10.5 0 1 0 -21 0zM989.79 997.5 a10.5 10.5 0 1 0 21 0 a10.5 10.5 0 1 0 -21 0zM1080.72 1050 a10.5 10.5 0 1 0 21 0 a10.5 10.5 0 1 0 -21 0zM1080.72 1155 a10.5 10.5 0 1 0 21 0 a10.5 10.5 0 1 0 -21 0zM989.79 1207.5 a10.5 10.5 0 1 0 21 0 a10.5 10.5 0 1 0 -21 0zM989.79 1312.5 a10.5 10.5 0 1 0 21 0 a10.5 10.5 0 1 0 -21 0zM1080.72 1365 a10.5 10.5 0 1 0 21 0 a10.5 10.5 0 1 0 -21 0zM1080.72 1470 a10.5 10.5 0 1 0 21 0 a10.5 10.5 0 1 0 -21 0zM989.79 1522.5 a10.5 10.5 0 1 0 21 0 a10.5 10.5 0 1 0 -21 0zM1080.72 -105 a10.5 10.5 0 1 0 21 0 a10.5 10.5 0 1 0 -21 0zM1171.66 -52.5 a10.5 10.5 0 1 0 21 0 a10.5 10.5 0 1 0 -21 0zM1171.66 52.5 a10.5 10.5 0 1 0 21 0 a10.5 10.5 0 1 0 -21 0zM1262.59 105 a10.5 10.5 0 1 0 21 0 a10.5 10.5 0 1 0 -21 0zM1262.59 210 a10.5 10.5 0 1 0 21 0 a10.5 10.5 0 1 0 -21 0zM1171.66 262.5 a10.5 10.5 0 1 0 21 0 a10.5 10.5 0 1 0 -21 0zM1171.66 367.5 a10.5 10.5 0 1 0 21 0 a10.5 10.5 0 1 0 -21 0zM1262.59 420 a10.5 10.5 0 1 0 21 0 a10.5 10.5 0 1 0 -21 0zM1262.59 525 a10.5 10.5 0 1 0 21 0 a10.5 10.5 0 1 0 -21 0zM1171.66 577.5 a10.5 10.5 0 1 0 21 0 a10.5 10.5 0 1 0 -21 0zM1171.66 682.5 a10.5 10.5 0 1 0 21 0 a10.5 10.5 0 1 0 -21 0zM1262.59 735 a10.5 10.5 0 1 0 21 0 a10.5 10.5 0 1 0 -21 0zM1262.59 840 a10.5 10.5 0 1 0 21 0 a10.5 10.5 0 1 0 -21 0zM1171.66 892.5 a10.5 10.5 0 1 0 21 0 a10.5 10.5 0 1 0 -21 0zM1171.66 997.5 a10.5 10.5 0 1 0 21 0 a10.5 10.5 0 1 0 -21 0zM1262.59 1050 a10.5 10.5 0 1 0 21 0 a10.5 10.5 0 1 0 -21 0zM1262.59 1155 a10.5 10.5 0 1 0 21 0 a10.5 10.5 0 1 0 -21 0zM1171.66 1207.5 a10.5 10.5 0 1 0 21 0 a10.5 10.5 0 1 0 -21 0zM1171.66 1312.5 a10.5 10.5 0 1 0 21 0 a10.5 10.5 0 1 0 -21 0zM1262.59 1365 a10.5 10.5 0 1 0 21 0 a10.5 10.5 0 1 0 -21 0zM1262.59 1470 a10.5 10.5 0 1 0 21 0 a10.5 10.5 0 1 0 -21 0zM1171.66 1522.5 a10.5 10.5 0 1 0 21 0 a10.5 10.5 0 1 0 -21 0zM1262.59 -105 a10.5 10.5 0 1 0 21 0 a10.5 10.5 0 1 0 -21 0zM1353.53 -52.5 a10.5 10.5 0 1 0 21 0 a10.5 10.5 0 1 0 -21 0zM1353.53 52.5 a10.5 10.5 0 1 0 21 0 a10.5 10.5 0 1 0 -21 0zM1444.46 105 a10.5 10.5 0 1 0 21 0 a10.5 10.5 0 1 0 -21 0zM1444.46 210 a10.5 10.5 0 1 0 21 0 a10.5 10.5 0 1 0 -21 0zM1353.53 262.5 a10.5 10.5 0 1 0 21 0 a10.5 10.5 0 1 0 -21 0zM1353.53 367.5 a10.5 10.5 0 1 0 21 0 a10.5 10.5 0 1 0 -21 0zM1444.46 420 a10.5 10.5 0 1 0 21 0 a10.5 10.5 0 1 0 -21 0zM1444.46 525 a10.5 10.5 0 1 0 21 0 a10.5 10.5 0 1 0 -21 0zM1353.53 577.5 a10.5 10.5 0 1 0 21 0 a10.5 10.5 0 1 0 -21 0zM1353.53 682.5 a10.5 10.5 0 1 0 21 0 a10.5 10.5 0 1 0 -21 0zM1444.46 735 a10.5 10.5 0 1 0 21 0 a10.5 10.5 0 1 0 -21 0zM1444.46 840 a10.5 10.5 0 1 0 21 0 a10.5 10.5 0 1 0 -21 0zM1353.53 892.5 a10.5 10.5 0 1 0 21 0 a10.5 10.5 0 1 0 -21 0zM1353.53 997.5 a10.5 10.5 0 1 0 21 0 a10.5 10.5 0 1 0 -21 0zM1444.46 1050 a10.5 10.5 0 1 0 21 0 a10.5 10.5 0 1 0 -21 0zM1444.46 1155 a10.5 10.5 0 1 0 21 0 a10.5 10.5 0 1 0 -21 0zM1353.53 1207.5 a10.5 10.5 0 1 0 21 0 a10.5 10.5 0 1 0 -21 0zM1353.53 1312.5 a10.5 10.5 0 1 0 21 0 a10.5 10.5 0 1 0 -21 0zM1444.46 1365 a10.5 10.5 0 1 0 21 0 a10.5 10.5 0 1 0 -21 0zM1444.46 1470 a10.5 10.5 0 1 0 21 0 a10.5 10.5 0 1 0 -21 0zM1353.53 1522.5 a10.5 10.5 0 1 0 21 0 a10.5 10.5 0 1 0 -21 0zM1444.46 -105 a10.5 10.5 0 1 0 21 0 a10.5 10.5 0 1 0 -21 0zM1535.4 -52.5 a10.5 10.5 0 1 0 21 0 a10.5 10.5 0 1 0 -21 0zM1535.4 52.5 a10.5 10.5 0 1 0 21 0 a10.5 10.5 0 1 0 -21 0zM1626.33 105 a10.5 10.5 0 1 0 21 0 a10.5 10.5 0 1 0 -21 0zM1626.33 210 a10.5 10.5 0 1 0 21 0 a10.5 10.5 0 1 0 -21 0zM1535.4 262.5 a10.5 10.5 0 1 0 21 0 a10.5 10.5 0 1 0 -21 0zM1535.4 367.5 a10.5 10.5 0 1 0 21 0 a10.5 10.5 0 1 0 -21 0zM1626.33 420 a10.5 10.5 0 1 0 21 0 a10.5 10.5 0 1 0 -21 0zM1626.33 525 a10.5 10.5 0 1 0 21 0 a10.5 10.5 0 1 0 -21 0zM1535.4 577.5 a10.5 10.5 0 1 0 21 0 a10.5 10.5 0 1 0 -21 0zM1535.4 682.5 a10.5 10.5 0 1 0 21 0 a10.5 10.5 0 1 0 -21 0zM1626.33 735 a10.5 10.5 0 1 0 21 0 a10.5 10.5 0 1 0 -21 0zM1626.33 840 a10.5 10.5 0 1 0 21 0 a10.5 10.5 0 1 0 -21 0zM1535.4 892.5 a10.5 10.5 0 1 0 21 0 a10.5 10.5 0 1 0 -21 0zM1535.4 997.5 a10.5 10.5 0 1 0 21 0 a10.5 10.5 0 1 0 -21 0zM1626.33 1050 a10.5 10.5 0 1 0 21 0 a10.5 10.5 0 1 0 -21 0zM1626.33 1155 a10.5 10.5 0 1 0 21 0 a10.5 10.5 0 1 0 -21 0zM1535.4 1207.5 a10.5 10.5 0 1 0 21 0 a10.5 10.5 0 1 0 -21 0zM1535.4 1312.5 a10.5 10.5 0 1 0 21 0 a10.5 10.5 0 1 0 -21 0zM1626.33 1365 a10.5 10.5 0 1 0 21 0 a10.5 10.5 0 1 0 -21 0zM1626.33 1470 a10.5 10.5 0 1 0 21 0 a10.5 10.5 0 1 0 -21 0zM1535.4 1522.5 a10.5 10.5 0 1 0 21 0 a10.5 10.5 0 1 0 -21 0zM1626.33 -105 a10.5 10.5 0 1 0 21 0 a10.5 10.5 0 1 0 -21 0zM1717.27 -52.5 a10.5 10.5 0 1 0 21 0 a10.5 10.5 0 1 0 -21 0zM1717.27 52.5 a10.5 10.5 0 1 0 21 0 a10.5 10.5 0 1 0 -21 0zM1808.2 105 a10.5 10.5 0 1 0 21 0 a10.5 10.5 0 1 0 -21 0zM1808.2 210 a10.5 10.5 0 1 0 21 0 a10.5 10.5 0 1 0 -21 0zM1717.27 262.5 a10.5 10.5 0 1 0 21 0 a10.5 10.5 0 1 0 -21 0zM1717.27 367.5 a10.5 10.5 0 1 0 21 0 a10.5 10.5 0 1 0 -21 0zM1808.2 420 a10.5 10.5 0 1 0 21 0 a10.5 10.5 0 1 0 -21 0zM1808.2 525 a10.5 10.5 0 1 0 21 0 a10.5 10.5 0 1 0 -21 0zM1717.27 577.5 a10.5 10.5 0 1 0 21 0 a10.5 10.5 0 1 0 -21 0zM1717.27 682.5 a10.5 10.5 0 1 0 21 0 a10.5 10.5 0 1 0 -21 0zM1808.2 735 a10.5 10.5 0 1 0 21 0 a10.5 10.5 0 1 0 -21 0zM1808.2 840 a10.5 10.5 0 1 0 21 0 a10.5 10.5 0 1 0 -21 0zM1717.27 892.5 a10.5 10.5 0 1 0 21 0 a10.5 10.5 0 1 0 -21 0zM1717.27 997.5 a10.5 10.5 0 1 0 21 0 a10.5 10.5 0 1 0 -21 0zM1808.2 1050 a10.5 10.5 0 1 0 21 0 a10.5 10.5 0 1 0 -21 0zM1808.2 1155 a10.5 10.5 0 1 0 21 0 a10.5 10.5 0 1 0 -21 0zM1717.27 1207.5 a10.5 10.5 0 1 0 21 0 a10.5 10.5 0 1 0 -21 0zM1717.27 1312.5 a10.5 10.5 0 1 0 21 0 a10.5 10.5 0 1 0 -21 0zM1808.2 1365 a10.5 10.5 0 1 0 21 0 a10.5 10.5 0 1 0 -21 0zM1808.2 1470 a10.5 10.5 0 1 0 21 0 a10.5 10.5 0 1 0 -21 0zM1717.27 1522.5 a10.5 10.5 0 1 0 21 0 a10.5 10.5 0 1 0 -21 0zM1808.2 -105 a10.5 10.5 0 1 0 21 0 a10.5 10.5 0 1 0 -21 0zM1899.14 -52.5 a10.5 10.5 0 1 0 21 0 a10.5 10.5 0 1 0 -21 0zM1899.14 52.5 a10.5 10.5 0 1 0 21 0 a10.5 10.5 0 1 0 -21 0zM1990.08 105 a10.5 10.5 0 1 0 21 0 a10.5 10.5 0 1 0 -21 0zM1990.08 210 a10.5 10.5 0 1 0 21 0 a10.5 10.5 0 1 0 -21 0zM1899.14 262.5 a10.5 10.5 0 1 0 21 0 a10.5 10.5 0 1 0 -21 0zM1899.14 367.5 a10.5 10.5 0 1 0 21 0 a10.5 10.5 0 1 0 -21 0zM1990.08 420 a10.5 10.5 0 1 0 21 0 a10.5 10.5 0 1 0 -21 0zM1990.08 525 a10.5 10.5 0 1 0 21 0 a10.5 10.5 0 1 0 -21 0zM1899.14 577.5 a10.5 10.5 0 1 0 21 0 a10.5 10.5 0 1 0 -21 0zM1899.14 682.5 a10.5 10.5 0 1 0 21 0 a10.5 10.5 0 1 0 -21 0zM1990.08 735 a10.5 10.5 0 1 0 21 0 a10.5 10.5 0 1 0 -21 0zM1990.08 840 a10.5 10.5 0 1 0 21 0 a10.5 10.5 0 1 0 -21 0zM1899.14 892.5 a10.5 10.5 0 1 0 21 0 a10.5 10.5 0 1 0 -21 0zM1899.14 997.5 a10.5 10.5 0 1 0 21 0 a10.5 10.5 0 1 0 -21 0zM1990.08 1050 a10.5 10.5 0 1 0 21 0 a10.5 10.5 0 1 0 -21 0zM1990.08 1155 a10.5 10.5 0 1 0 21 0 a10.5 10.5 0 1 0 -21 0zM1899.14 1207.5 a10.5 10.5 0 1 0 21 0 a10.5 10.5 0 1 0 -21 0zM1899.14 1312.5 a10.5 10.5 0 1 0 21 0 a10.5 10.5 0 1 0 -21 0zM1990.08 1365 a10.5 10.5 0 1 0 21 0 a10.5 10.5 0 1 0 -21 0zM1990.08 1470 a10.5 10.5 0 1 0 21 0 a10.5 10.5 0 1 0 -21 0zM1899.14 1522.5 a10.5 10.5 0 1 0 21 0 a10.5 10.5 0 1 0 -21 0z" fill="url(&quot;#SvgjsLinearGradient3990&quot;)"></path></g><defs><mask id="SvgjsMask3987"><rect width="1920" height="1440" fill="#ffffff"></rect></mask><linearGradient x1="6.25%" y1="-8.33%" x2="93.75%" y2="108.33%" gradientUnits="userSpaceOnUse" id="SvgjsLinearGradient3988"><stop stop-color="#0e2a47" offset="0"></stop><stop stop-color="rgba(191, 103, 220, 0.71)" offset="1"></stop></linearGradient><linearGradient x1="1920" y1="720" x2="0" y2="720" gradientUnits="userSpaceOnUse" id="SvgjsLinearGradient3989"><stop stop-color="#0e2a47" offset="0"></stop><stop stop-color="rgba(0, 69, 158, 0.76)" offset="1"></stop></linearGradient><linearGradient x1="1800" y1="1559.952" x2="120" y2="-119.952" gradientUnits="userSpaceOnUse" id="SvgjsLinearGradient3990"><stop stop-color="rgba(24, 14, 71, 1)" offset="0"></stop><stop stop-color="rgba(0, 69, 158, 1)" offset="1"></stop></linearGradient></defs></svg>