<svg xmlns="http://www.w3.org/2000/svg" version="1.1" xmlns:xlink="http://www.w3.org/1999/xlink" xmlns:svgjs="http://svgjs.dev/svgjs" width="1440" height="560" preserveAspectRatio="none" viewBox="0 0 1440 560"><g mask="url(&quot;#SvgjsMask1000&quot;)" fill="none"><rect width="1440" height="560" x="0" y="0" fill="#0e2a47"></rect><path d="M0,411.255C74.335,396.411,120.614,326.975,179.298,278.993C230.569,237.072,289.931,204.922,322.726,147.384C357.353,86.631,378.355,16.248,368.515,-52.984C358.668,-122.267,307.887,-174.849,268.688,-232.819C223.876,-299.088,199.148,-394.286,122.419,-416.92C45.697,-439.551,-24.12,-365.992,-100.323,-341.67C-174.213,-318.086,-265.844,-332.921,-318.674,-276.133C-371.666,-219.171,-355.224,-129.631,-368.843,-53.032C-383.012,26.662,-425.651,105.935,-400.272,182.798C-374.123,261.994,-304.524,319.799,-232.091,361.141C-161.931,401.185,-79.219,427.074,0,411.255" fill="#0b2239"></path><path d="M1440 1012.97C1529.551 1001.2529999999999 1617.526 1000.24 1701.399 966.745 1800.786 927.0550000000001 1908.407 889.765 1969.149 801.654 2034.03 707.54 2062.915 585.8 2041.413 473.53 2020.258 363.076 1928.348 285.649 1854.138 201.147 1780.436 117.22300000000001 1715.308 18.404999999999973 1609.725-18.03099999999995 1502.226-55.12800000000004 1383.715-34.972999999999956 1276.055 1.655999999999949 1171.421 37.254999999999995 1075.455 98.20600000000002 1008.847 186.404 944.653 271.405 902.359 377.94399999999996 911.745 484.048 920.437 582.301 1021.304 642.935 1057.355 734.748 1096.563 834.6 1043.843 978.3399999999999 1130.606 1041.426 1216.103 1103.591 1335.185 1026.684 1440 1012.97" fill="#113255"></path></g><defs><mask id="SvgjsMask1000"><rect width="1440" height="560" fill="#ffffff"></rect></mask></defs></svg>